<?xml version="1.0" encoding="UTF-8" standalone="no"?>
<svg width="512px" height="512px" viewBox="0 0 512 512" version="1.1" xmlns="http://www.w3.org/2000/svg" xmlns:xlink="http://www.w3.org/1999/xlink">
    <!-- Generator: Sketch 3.6.1 (26313) - http://www.bohemiancoding.com/sketch -->
    <title>Artboard 1</title>
    <desc>Created with Sketch.</desc>
    <defs></defs>
    <g id="Page-2" stroke="none" stroke-width="1" fill="none" fill-rule="evenodd">
        <g id="Artboard-1" fill="#333333">
            <path d="M512,97.3807107 C493.15736,105.502538 472.690355,111.350254 451.573604,113.624365 C473.340102,100.629442 489.908629,80.1624365 497.705584,55.7969543 C477.563452,67.8172589 454.822335,76.5888325 431.106599,81.1370558 C411.939086,60.6700508 384.649746,48 354.436548,48 C296.284264,48 249.502538,95.106599 249.502538,152.93401 C249.502538,161.055838 250.477157,169.177665 252.101523,176.974619 C165.035533,172.426396 87.3908629,130.84264 35.7360406,67.1675127 C26.6395939,82.7614213 21.4416244,100.629442 21.4416244,120.121827 C21.4416244,156.507614 39.9593909,188.670051 68.2233503,207.51269 C51.0050761,206.862944 34.7614213,201.989848 20.7918782,194.192893 L20.7918782,195.492386 C20.7918782,246.497462 56.8527919,288.730964 104.93401,298.477157 C96.1624365,300.751269 86.7411168,302.050761 77.319797,302.050761 C70.4974619,302.050761 64,301.401015 57.5025381,300.426396 C70.822335,342.010152 109.482234,372.22335 155.614213,373.19797 C119.553299,401.461929 74.3959391,418.030457 25.3401015,418.030457 C16.5685279,418.030457 8.44670051,417.705584 0,416.730964 C46.4568528,446.619289 101.685279,463.837563 161.137056,463.837563 C354.111675,463.837563 459.695431,304 459.695431,165.279188 C459.695431,160.730964 459.695431,156.182741 459.370558,151.634518 C479.837563,136.690355 497.705584,118.172589 512,97.3807107 L512,97.3807107 Z" id=""></path>
        </g>
    </g>
</svg>