<?xml version="1.0" encoding="utf-8"?>
<!-- Generator: Adobe Illustrator 18.0.0, SVG Export Plug-In . SVG Version: 6.00 Build 0)  -->
<!DOCTYPE svg PUBLIC "-//W3C//DTD SVG 1.1//EN" "http://www.w3.org/Graphics/SVG/1.1/DTD/svg11.dtd">
<svg version="1.1" id="Layer_1" xmlns="http://www.w3.org/2000/svg" xmlns:xlink="http://www.w3.org/1999/xlink" x="0px" y="0px"
	 width="512px" height="512px" viewBox="0 0 512 512" enable-background="new 0 0 512 512" xml:space="preserve">
<g>
	<path d="M218.4,406.6l3.4-3.8c3.8,4.2,9.7,8,18.2,8c11.8,0,15.2-6.3,15.2-11.4c0-16.5-34.6-8-34.6-27.9c0-9.3,8.4-15.2,19-15.2
		c8.4,0,15.2,3,19.4,8l-3.4,3.4c-4.2-5.1-10.1-7.2-16.5-7.2c-7.6,0-13.5,4.2-13.5,10.6c0,14.4,34.6,6.3,34.6,27.5
		c0,7.2-5.1,16.1-20.3,16.1C230.2,415.5,223,411.7,218.4,406.6z"/>
	<path d="M289.8,414.6v-52h-18.2v-5.1h42.7v5.1h-19.4v51.5h-5.1V414.6z"/>
	<path d="M325.3,393.1v-35.5h5.1v35.5c0,11.4,5.9,17.7,16.9,17.7c11.4,0,17.3-6.3,17.3-17.7v-35.5h5.1v35.5c0,13.9-7.6,22-22.4,22
		C332.9,415.5,325.3,407,325.3,393.1z"/>
	<path d="M381,414.6v-57h18.2c17.7,0,29.6,12.7,29.6,28.3c0,15.6-11.4,28.3-29.6,28.3H381V414.6z M423.7,385.9
		c0-13.1-8.9-23.2-24.5-23.2h-13.1v46.5h13.1C414.8,409.6,423.7,399.4,423.7,385.9z"/>
	<path d="M440.2,414.6v-57h5.1v56.6h-5.1V414.6z"/>
	<path d="M455.8,385.9c0-16.5,11-29.1,27.9-29.1c16.9,0,27.9,12.7,27.9,29.1c0,16.5-11,29.1-27.9,29.1
		C466.8,415.5,455.8,402.4,455.8,385.9z M506.5,385.9c0-14.4-8.9-24.9-22.8-24.9s-22.8,10.6-22.8,24.9c0,14.4,8.9,24.9,22.8,24.9
		S506.5,400.3,506.5,385.9z"/>
	<path d="M193.9,152.7c9.3,0,16.5-7.2,16.5-16.1c0-8.9-7.6-16.1-16.5-16.1c-9.3,0-16.5,7.2-16.5,16.1
		C177.4,145.5,184.6,152.7,193.9,152.7z"/>
	<path d="M317.7,267.2c-9.3,0-16.5,7.2-16.5,16.1s7.6,16.1,16.5,16.1c9.3,0,16.5-7.2,16.5-16.1S327,267.2,317.7,267.2z"/>
	<path d="M491.7,298.9c12.3-13.1,20.3-30.4,20.3-50.7l0,0l0,0v-33.4v-14.4v-5.9V96.1h-41.4c-2.1,0-7.2,0-11.8,5.1
		c-2.5,2.5-4.2,5.9-4.2,11.4v138.6c0,3-1.3,6.8-3.4,9.7l0,0l0,0c-0.8,0.8-1.7,1.7-2.5,2.5l0,0c-2.1,1.7-4.6,3.4-7.6,3.8
		c-0.4,0-0.8,0-0.8,0c-0.8,0-1.3,0-2.1,0c-1.7,0-3.4-0.4-5.1-0.8C445.3,285.8,467.2,298.5,491.7,298.9z"/>
	<path d="M454.1,251.1L454.1,251.1L454.1,251.1L454.1,251.1z"/>
	<path d="M423.7,260c-0.8-0.8-1.3-2.1-1.7-3.4l-0.4-0.8l-22-61.7l-5.5-15.6L382.7,146l-0.4-0.4c-4.6-12.3-14.4-25.3-28.3-35.1
		c-32.5,0.8-60,23.2-68.4,52.8c5.5-6.3,13.9-10.1,20.3-10.1c25.8-0.4,30.4,23.2,30.4,23.2l22.8,88.7c0,0,13.1,58.7,79.4,58.7
		c16.9,0,35.1-7.6,49-21.1C459.6,301,435.5,283.7,423.7,260z"/>
	<path d="M19.9,121.5C7.6,134.5,0,152.7,0,172.1l0,0v47.7v5.9v98.4h41.4c2.1,0,6.8,0,11.8-5.1c2.5-2.5,4.2-5.9,4.2-11.4v-139
		c0-3,1.3-6.3,3.4-9.3l0,0l0,0c0.8-0.8,1.7-1.7,2.5-2.5l0,0c2.5-2.5,6.3-4.2,10.6-4.2l0,0c1.7,0,3.8,0.4,5.5,0.8
		C66.7,134.5,44.8,121.9,19.9,121.5z M57.9,168.8L57.9,168.8L57.9,168.8L57.9,168.8z"/>
	<path d="M278.8,181.4L278.8,181.4c0-38.9,29.6-71,69.3-75.2c-11-5.9-23.7-10.1-38-10.1l0,0l0,0c-42.7,0-76.9,33.8-76.9,76
		c0,0,0,63.8,0,66.7c0,0.4,0,1.7,0,2.5c-0.8,38.4-31.3,69.3-69.7,73.1c17.7,9.7,35.5,9.7,38.4,9.7l0,0c42.7,0,76.9-34.2,76.9-76
		v-30.4V181.4z"/>
	<path d="M226,257.1c-3,3.4-7.2,6.3-11.4,8c-0.4,0.4-0.8,0.4-1.7,0.8c-3,0.8-6.8,1.7-11.8,1.3c-11.8-0.8-22-9.3-25.3-20.3l-0.4-1.3
		l-22.4-90.4v-0.8c-0.4-1.7-0.8-3.4-1.3-4.6c-10.1-31.3-39.3-53.7-74.3-53.7c-20.7,0-39.3,8-53.2,21.1c29.1,2.1,53.7,19.9,65.1,44.8
		c0,0.4,0.4,0.8,0.4,1.3c1.3,3,2.1,5.9,3.4,8.9l19,54.1l5.5,15.6c0,0,12.3,33.8,12.3,34.6c0,0,5.9,15.6,20.3,28.3
		c2.1,2.1,4.6,3.8,6.8,5.5C190.1,309.9,218,287,226,257.1z"/>
	<g>
		<g>
			<path d="M38.9,392.7l-26.4-35.9H0v57.1h12.2v-37.2l27.2,37.2h11.7v-57.1H38.9V392.7z M84.4,356.8l-22,57.1h13.8l3.6-9.7h24.5
				l3.6,9.7h13.8l-22-57.1H84.4z M83.1,393.6L92,369l8.9,24.6H83.1z M172.1,356.8v33.9c0,8-4.5,13.4-13.4,13.4
				c-8.8,0-13.4-5.5-13.4-13.4v-33.9h-12.3v34.2c0,14.1,8.4,23.9,25.8,23.9c17.4,0,25.8-9.8,25.8-23.9v-34.2H172.1z"/>
		</g>
	</g>
</g>
</svg>
