<?xml version="1.0" encoding="utf-8"?>
<!-- Generator: Adobe Illustrator 18.0.0, SVG Export Plug-In . SVG Version: 6.00 Build 0)  -->
<!DOCTYPE svg PUBLIC "-//W3C//DTD SVG 1.1//EN" "http://www.w3.org/Graphics/SVG/1.1/DTD/svg11.dtd">
<svg version="1.1" id="Layer_1" xmlns="http://www.w3.org/2000/svg" xmlns:xlink="http://www.w3.org/1999/xlink" x="0px" y="0px"
	 width="512px" height="512px" viewBox="0 0 512 512" enable-background="new 0 0 512 512" xml:space="preserve">
<path d="M256,0C114.6,0,0,114.6,0,256s114.6,256,256,256s256-114.6,256-256S397.4,0,256,0z M207,185.3c7,0,13,5.7,13,12.7
	s-5.7,12.7-13,12.7c-7.3,0-13-5.7-13-12.7S199.7,185.3,207,185.3z M112.3,210.6c-3.4,0-6.4,1.3-8.4,3.3c-0.6,0.6-1.3,1.3-2,2
	c-1.7,2.4-2.7,5-2.7,7.3V333c0,4.3-1.3,7-3.3,9c-3.9,4-7.7,4-9.3,4H54v-77.7v-4.7V226c0-15.3,6-29.7,15.7-39.9
	c19.6,0.3,36.9,10.3,46.9,25.2C115.3,210.9,113.7,210.6,112.3,210.6z M172.5,330.8c-11.4-10-16-22.3-16-22.3
	c0-0.6-9.7-27.3-9.7-27.3l-4.3-12.3l-15-42.7c-1-2.4-1.7-4.7-2.7-7c0-0.4-0.3-0.7-0.3-1c-9-19.7-28.4-33.7-51.4-35.4
	c11-10.3,25.6-16.7,42-16.7c27.6,0,50.7,17.7,58.6,42.4c0.4,0.9,0.7,2.3,1,3.6v0.6l17.7,71.4l0.3,1c2.6,8.7,10.7,15.4,20,16
	c3.9,0.3,6.9-0.4,9.3-1c0.7-0.3,1-0.3,1.3-0.6c3.3-1.3,6.6-3.6,9-6.3c-6.3,23.6-28.3,41.7-54.4,42
	C176.1,333.8,174.2,332.4,172.5,330.8z M274,262v24c0,33-27,60-60.7,60c-2.3,0-16.3,0-30.3-7.7c30.3-3,54.4-27.4,55-57.7
	c0-0.6,0-1.7,0-2c0-2.3,0-52.7,0-52.7c0-33.3,27-60,60.7-60c11.3,0,21.3,3.3,30,8c-31.3,3.3-54.7,28.7-54.7,59.4V262z M304.7,326.5
	c-7,0-13-5.7-13-12.7s5.7-12.7,13-12.7s13,5.7,13,12.7S312,326.5,304.7,326.5z M400,345.8c-52.3,0-62.7-46.3-62.7-46.3l-18-70
	c0,0-3.6-18.6-24-18.3c-5.1,0-11.7,3-16,8c6.6-23.4,28.3-41.1,54-41.7c11,7.7,18.7,18,22.3,27.7l0.3,0.3l9,25.7l4.3,12.3l17.4,48.7
	l0.3,0.6c0.3,1,0.7,2.1,1.3,2.7c9.3,18.7,28.3,32.4,50.3,33.7C427.7,339.8,413.3,345.8,400,345.8z M458,248.3v11.4v26.4
	c0,16-6.3,29.7-16,40c-19.3-0.3-36.6-10.3-46.2-25.7c1.3,0.3,2.7,0.6,4,0.6c0.6,0,1,0,1.7,0c0,0,0.3,0,0.6,0c2.4-0.3,4.3-1.7,6-3
	c0.6-0.6,1.3-1.3,2-2c1.7-2.3,2.7-5.3,2.7-7.7V179c0-4.3,1.3-7,3.3-9c3.6-4,7.7-4,9.3-4H458v77.7V248.3z"/>
</svg>
